<svg xmlns="http://www.w3.org/2000/svg" viewBox="0 0 64 64" role="img" aria-label="BJ">
  <rect width="64" height="64" rx="32" fill="#181713"/>
  <path d="M18 18h13c6.5 0 10.3 3 10.3 8.2 0 3-1.5 5.2-4.3 6.5 4 1.1 6.2 3.9 6.2 8.2C43.2 47 38.7 51 31.7 51H18V18Zm8.1 13h4c2.2 0 3.5-1.1 3.5-3s-1.3-2.9-3.5-2.9h-4V31Zm0 12.8h5.1c2.6 0 4.1-1.3 4.1-3.5 0-2.3-1.5-3.6-4.1-3.6h-5.1v7.1Z" fill="#fffaf2"/>
  <path d="M48 18h-7.8v21.9c0 3.2-1.7 4.8-4.7 4.8-1.5 0-2.8-.3-4.2-.8v7c1.7.6 3.8.9 6.2.9 6.6 0 10.5-4 10.5-11.2V18Z" fill="#d9a23f"/>
</svg>
